<svg xmlns="http://www.w3.org/2000/svg" fill="none" viewBox="0 0 32 32"><path fill="currentColor" d="M14.188 0h3.75c.326.06.65.123.977.18 7.292 1.269 12.859 7.678 13.077 15.076.123 4.164-1.15 7.86-3.88 11.01-2.795 3.228-6.352 5.06-10.608 5.466-3.092.295-6.027-.309-8.794-1.726a.76.76 0 0 0-.49-.07c-2.125.542-4.246 1.105-6.37 1.652-.612.157-1.233.276-1.85.412v-.062c.026-.053.062-.104.077-.16.712-2.596 1.425-5.19 2.127-7.788.032-.119-.016-.284-.078-.4-1.77-3.27-2.372-6.74-1.76-10.41C1.4 6.95 6.177 1.838 12.33.372c.615-.146 1.24-.25 1.858-.372M3.834 28.274c.148-.032.227-.047.306-.067 1.438-.376 2.878-.748 4.313-1.136a.86.86 0 0 1 .728.102c3.626 2.128 7.45 2.558 11.405 1.129 6.28-2.27 9.818-8.767 8.415-15.306C27.548 6.231 20.867 1.65 14.05 2.77c-3.765.618-6.758 2.51-8.922 5.65-1.823 2.646-2.544 5.603-2.235 8.798.207 2.14.924 4.112 2.102 5.91a.63.63 0 0 1 .088.58c-.223.757-.424 1.522-.631 2.285-.202.74-.402 1.481-.618 2.281"/><path fill="currentColor" d="M20.298 23.505c-1.005.052-1.869-.297-2.745-.598-3.135-1.075-5.476-3.176-7.44-5.76-.777-1.023-1.516-2.07-1.889-3.32-.537-1.8-.233-3.413 1.097-4.79.352-.366.76-.572 1.276-.539.176.012.356.02.531.005.45-.038.73.172.898.572.444 1.065.903 2.125 1.324 3.198.07.177.053.46-.046.619-.29.464-.625.902-.972 1.328-.306.376-.336.498-.089.913 1.289 2.17 3.098 3.732 5.444 4.668.363.145.546.113.802-.19q.602-.718 1.18-1.455c.303-.386.475-.461.939-.255.779.347 1.544.725 2.313 1.092.29.139.576.29.868.426.243.113.36.286.358.562-.006 1.202-.387 2.192-1.48 2.837-.753.445-1.534.74-2.369.686"/></svg>