<svg xmlns="http://www.w3.org/2000/svg" fill="none" viewBox="0 0 24 24"><path fill="currentColor" d="M11.998 21H3.815c-1.266 0-2.274-.723-2.66-1.928a3.2 3.2 0 0 1-.146-.973C1 14.036 1.01 9.969 1 5.906.995 4.152 2.365 2.996 3.839 3c5.443.02 10.88.02 16.323 0a2.796 2.796 0 0 1 2.778 2.28c.038.212.056.433.056.65.005 4.048.005 8.101 0 12.15 0 1.421-.8 2.5-2.118 2.843-.24.063-.504.072-.753.072q-4.067.006-8.127.005m-.019-1.113h8.164c1.05 0 1.752-.713 1.752-1.779V5.872c0-.173-.014-.351-.066-.52-.217-.762-.848-1.224-1.657-1.23H3.848c-1.045 0-1.742.719-1.742 1.789q-.001 6.087.005 12.173c0 .193.014.396.066.584.221.76.848 1.219 1.662 1.219zm1.874-7.658q2.655-2.358 5.311-4.708c.47-.42.946-.84 1.417-1.258a.58.58 0 0 0 .189-.608c-.062-.226-.217-.351-.438-.395-.207-.038-.368.063-.518.198l-6.681 5.928c-.697.616-1.563.612-2.265-.005-.268-.241-.541-.477-.81-.718-1.963-1.74-3.921-3.48-5.885-5.22-.282-.25-.607-.245-.824.005-.207.241-.179.593.08.824 2.256 2.005 4.516 4.005 6.775 6.01.514.453 1.116.68 1.794.69.707-.015 1.319-.266 1.855-.743M4.08 18.137c.23.102.447.058.626-.125 1.093-1.118 2.185-2.231 3.277-3.354a.56.56 0 0 0 .014-.795c-.221-.232-.55-.236-.79.005a433 433 0 0 0-3.273 3.354c-.099.1-.141.26-.183.337.023.308.122.487.33.578m11.813-4.1a.57.57 0 0 0 .136.635q1.624 1.664 3.249 3.32c.245.251.584.256.805.025.221-.232.217-.56-.023-.81a720 720 0 0 0-3.263-3.335c-.099-.1-.254-.15-.32-.183-.292.005-.509.145-.584.347"/></svg>